<?xml version="1.0" encoding="UTF-8"?>
<svg width="40px" height="40px" viewBox="0 0 40 40" version="1.1" xmlns="http://www.w3.org/2000/svg" xmlns:xlink="http://www.w3.org/1999/xlink">
    <!-- Generator: Sketch 50.2 (55047) - http://www.bohemiancoding.com/sketch -->
    <title>крестик</title>
    <desc>Created with Sketch.</desc>
    <defs></defs>
    <g id="крестик" stroke="none" stroke-width="1" fill="none" fill-rule="evenodd">
        <rect id="Rectangle-8" fill="#D8D8D8" opacity="0" x="0" y="0" width="40" height="40"></rect>
        <path d="M20,19.2480981 L29.0923742,10.155724 C29.3000061,9.94809201 29.6366441,9.94809201 29.844276,10.155724 C30.051908,10.3633559 30.051908,10.6999939 29.844276,10.9076258 L20.7519019,20 L29.844276,29.0923742 C30.051908,29.3000061 30.051908,29.6366441 29.844276,29.844276 C29.6366441,30.051908 29.3000061,30.051908 29.0923742,29.844276 L20,20.7519019 L10.9076258,29.844276 C10.6999939,30.051908 10.3633559,30.051908 10.155724,29.844276 C9.94809201,29.6366441 9.94809201,29.3000061 10.155724,29.0923742 L19.2480981,20 L10.155724,10.9076258 C9.94809201,10.6999939 9.94809201,10.3633559 10.155724,10.155724 C10.3633559,9.94809201 10.6999939,9.94809201 10.9076258,10.155724 L20,19.2480981 Z" id="Combined-Shape" stroke="#000000" fill="#000000" stroke-linecap="round"></path>
    </g>
</svg>