<svg width="34px" height="34px" viewBox="0 0 34 34" version="1.1" xmlns="http://www.w3.org/2000/svg" xmlns:xlink="http://www.w3.org/1999/xlink">
    <g transform="translate(10.045455, 10.045455)" fill="#000000">
        <path d="M12.9543434,2.54141414 L10.0076768,2.54141414 C9.49924792,1.19580635 8.21098284,0.305410542 6.77252525,0.305410542 C5.33406767,0.305410542 4.04580259,1.19580635 3.53737374,2.54141414 L0.590707071,2.54141414 C0.306196745,2.54141414 0.0755555556,2.77205533 0.0755555556,3.05656566 C0.0755555556,3.34107598 0.306196745,3.57171717 0.590707071,3.57171717 L0.934141414,3.57171717 L0.934141414,14.2181818 C0.934141414,14.7872025 1.39542379,15.2484848 1.96444444,15.2484848 L11.2371717,15.2484848 C11.8061924,15.2484848 12.2674747,14.7872025 12.2674747,14.2181818 L12.2674747,3.57171717 L12.9543434,3.57171717 C13.2388538,3.57171717 13.4694949,3.34107598 13.4694949,3.05656566 C13.4694949,2.77205533 13.2388538,2.54141414 12.9543434,2.54141414 L12.9543434,2.54141414 Z M6.77252525,1.33939394 C7.71010101,1.33939394 8.5240404,1.68282828 8.92585859,2.54141414 L4.61919192,2.54141414 C5.0210101,1.67939394 5.83494949,1.33939394 6.77252525,1.33939394 Z M11.2371717,14.2181818 L9.86343434,14.2181818 L9.86343434,8.37979798 C9.86343434,8.09528765 9.63279315,7.86464646 9.34828283,7.86464646 C9.0637725,7.86464646 8.83313131,8.09528765 8.83313131,8.37979798 L8.83313131,14.2181818 L7.1159596,14.2181818 L7.1159596,6.31919192 C7.1159596,6.03468159 6.88531841,5.8040404 6.60080808,5.8040404 C6.31629776,5.8040404 6.08565657,6.03468159 6.08565657,6.31919192 L6.08565657,14.2181818 L4.36848485,14.2181818 L4.36848485,8.37979798 C4.36848485,8.09528765 4.13784366,7.86464646 3.85333333,7.86464646 C3.56882301,7.86464646 3.33818182,8.09528765 3.33818182,8.37979798 L3.33818182,14.2181818 L1.96444444,14.2181818 L1.96444444,3.57171717 L11.2371717,3.57171717 L11.2371717,14.2181818 Z"></path>
    </g>
</svg>