<svg width="34px" height="34px" viewBox="0 0 34 34" version="1.1" xmlns="http://www.w3.org/2000/svg" xmlns:xlink="http://www.w3.org/1999/xlink">
    <g transform="translate(9.272727, 10.045455)" fill="#000000">
        <path d="M7.80282828,4.94545455 C6.28543988,4.94545455 5.05535354,6.17554089 5.05535354,7.69292929 C5.05535354,9.2103177 6.28543988,10.440404 7.80282828,10.440404 C9.32021669,10.440404 10.550303,9.2103177 10.550303,7.69292929 C10.550303,6.17554089 9.32021669,4.94545455 7.80282828,4.94545455 Z M7.80282828,9.41010101 C6.85446053,9.41010101 6.08565657,8.64129705 6.08565657,7.69292929 C6.08565657,6.74456154 6.85446053,5.97575758 7.80282828,5.97575758 C8.75119604,5.97575758 9.52,6.74456154 9.52,7.69292929 C9.52,8.64129705 8.75119604,9.41010101 7.80282828,9.41010101 Z"></path>
        <path d="M14.3280808,5.63232323 L13.9846465,5.63232323 C13.8911034,5.33707805 13.7763258,5.04898621 13.6412121,4.77030303 L13.8781818,4.53333333 C14.279936,4.13107893 14.279936,3.47942612 13.8781818,3.07717172 L12.4220202,1.6210101 C12.0197658,1.21925597 11.368113,1.21925597 10.9658586,1.6210101 L10.7220202,1.85454545 C10.4433322,1.71944275 10.1552412,1.60466545 9.86,1.51111111 L9.86,1.16767677 C9.86,0.598656116 9.39871762,0.137373737 8.82969697,0.137373737 L6.76909091,0.137373737 C6.20007026,0.137373737 5.73878788,0.598656116 5.73878788,1.16767677 L5.73878788,1.51111111 C5.44354673,1.60466545 5.15545569,1.71944275 4.87676768,1.85454545 L4.63979798,1.61757576 C4.23754357,1.21582162 3.58589077,1.21582162 3.18363636,1.61757576 L1.72747475,3.07373737 C1.32572061,3.47599178 1.32572061,4.12764458 1.72747475,4.52989899 L1.96444444,4.76686869 C1.82933076,5.04555186 1.71455314,5.3336437 1.6210101,5.62888889 L1.27757576,5.62888889 C0.708555106,5.62888889 0.247272727,6.09017127 0.247272727,6.65919192 L0.247272727,8.71979798 C0.247272727,9.28881863 0.708555106,9.75010101 1.27757576,9.75010101 L1.6210101,9.75010101 C1.71455314,10.0453462 1.82933076,10.333438 1.96444444,10.6121212 L1.72747475,10.8490909 C1.32572061,11.2513453 1.32572061,11.9029981 1.72747475,12.3052525 L3.18363636,13.7614141 C3.58589077,14.1631683 4.23754357,14.1631683 4.63979798,13.7614141 L4.88363636,13.5313131 C5.16232438,13.6664158 5.45041542,13.7811931 5.74565657,13.8747475 L5.74565657,14.2181818 C5.74565657,14.7872025 6.20693894,15.2484848 6.7759596,15.2484848 L8.83656566,15.2484848 C9.40558631,15.2484848 9.86686869,14.7872025 9.86686869,14.2181818 L9.86686869,13.8747475 C10.1621098,13.7811931 10.4502009,13.6664158 10.7288889,13.5313131 L10.9658586,13.7682828 C11.368113,14.170037 12.0197658,14.170037 12.4220202,13.7682828 L13.8781818,12.3121212 C14.279936,11.9098668 14.279936,11.258214 13.8781818,10.8559596 L13.6412121,10.6189899 C13.7763258,10.3403067 13.8911034,10.0522149 13.9846465,9.7569697 L14.3280808,9.7569697 C14.8971015,9.7569697 15.3583838,9.29568732 15.3583838,8.72666667 L15.3583838,6.66606061 C15.3592967,6.39221269 15.2511503,6.12926793 15.057832,5.93530521 C14.8645137,5.74134249 14.6019302,5.63232171 14.3280808,5.63232323 L14.3280808,5.63232323 Z M14.3280808,8.72323232 L13.1981818,8.72323232 C13.0589276,9.46134164 12.7689862,10.1628129 12.3464646,10.7838384 L13.1432323,11.5806061 L11.6870707,13.0367677 L10.890303,12.24 C10.2693245,12.6626086 9.56783451,12.9525579 8.82969697,13.0917172 L8.82969697,14.2181818 L6.76909091,14.2181818 L6.76909091,13.0882828 C6.03095337,12.9491235 5.32946334,12.6591743 4.70848485,12.2365657 L3.91171717,13.0333333 L2.45555556,11.5771717 L3.25232323,10.780404 C2.82980171,10.1593786 2.53986025,9.4579073 2.40060606,8.71979798 L1.27757576,8.71979798 L1.27757576,6.65919192 L2.40747475,6.65919192 C2.54672894,5.9210826 2.83667039,5.21961135 3.25919192,4.59858586 L2.46242424,3.80181818 L3.91858586,2.34565657 L4.71535354,3.14242424 C5.33637902,2.71990272 6.03785028,2.42996126 6.7759596,2.29070707 L6.7759596,1.16767677 L8.83656566,1.16767677 L8.83656566,2.29757576 C9.57467497,2.43682995 10.2761462,2.7267714 10.8971717,3.14929293 L11.6939394,2.35252525 L13.150101,3.80868687 L12.3464646,4.6020202 C12.7689862,5.22304569 13.0589276,5.92451695 13.1981818,6.66262626 L14.3280808,6.66262626 L14.3280808,8.72323232 Z"></path>
    </g>
</svg>