<svg width="34px" height="34px" viewBox="0 0 34 34" version="1.1" xmlns="http://www.w3.org/2000/svg" xmlns:xlink="http://www.w3.org/1999/xlink">
    <path d="M24.4776908,17.9131943 C24.4554783,17.9662942 24.4242432,18.0151491 24.3853683,18.057596 L22.9650231,19.4779412 C22.7689144,19.67405 22.4509593,19.67405 22.2548505,19.4779412 C22.0587418,19.2818325 22.0587418,18.9638774 22.2548505,18.7677686 L22.8182541,18.204365 L19.7692465,18.204365 C19.5857266,18.210843 19.4133057,18.116632 19.3196246,17.9586911 C19.2259435,17.8007501 19.2259435,17.6042694 19.3196246,17.4463284 C19.4133057,17.2883874 19.5857266,17.1941764 19.7692465,17.2006544 L22.8182541,17.2006544 L22.2548505,16.6372508 C22.0587418,16.4411421 22.0587418,16.123187 22.2548505,15.9270782 C22.4509593,15.7309695 22.7689144,15.7309695 22.9650231,15.9270782 L24.3853683,17.3474234 C24.4278193,17.3997607 24.4592253,17.4601569 24.4776908,17.5249666 C24.529737,17.6491428 24.529737,17.7890181 24.4776908,17.9131943 Z M14.7980383,17.2006544 C15.0683151,17.2101948 15.2824913,17.4320646 15.2824913,17.7025097 C15.2824913,17.9729549 15.0683151,18.1948246 14.7980383,18.204365 L11.5123064,18.204365 L12.07571,18.7677686 C12.2718188,18.9638774 12.2718188,19.2818325 12.07571,19.4779412 C11.8796013,19.67405 11.5616462,19.67405 11.3655374,19.4779412 L9.94519225,18.057596 C9.7490835,17.8614873 9.7490835,17.5435322 9.94519225,17.3474234 L11.3655374,15.9270782 C11.5616462,15.7309695 11.8796013,15.7309695 12.07571,15.9270782 C12.2718188,16.123187 12.2718188,16.4411421 12.07571,16.6372508 L11.5123064,17.2006544 L14.7980383,17.2006544 Z M18.9407118,22.79208 C19.1368205,22.9881887 19.1368205,23.3061438 18.9407118,23.5022526 L17.5203666,24.9225978 C17.3242578,25.1187065 17.0063027,25.1187065 16.810194,24.9225978 L15.3898488,23.5022526 C15.1937401,23.3061438 15.1937401,22.9881887 15.3898488,22.79208 C15.5859575,22.5959712 15.9039126,22.5959712 16.1000214,22.79208 L16.7817871,23.4738457 L16.7817871,20.1881138 C16.7913275,19.917837 17.0131972,19.7036608 17.2836424,19.7036608 C17.5540875,19.7036608 17.7759573,19.917837 17.7854977,20.1881138 L17.7854977,23.2371215 L18.2305392,22.79208 C18.4266479,22.5959712 18.744603,22.5959712 18.9407118,22.79208 Z M17.7854977,12.167898 L17.7854977,15.2169056 C17.7759573,15.4871825 17.5540875,15.7013587 17.2836424,15.7013587 C17.0131972,15.7013587 16.7913275,15.4871825 16.7817871,15.2169056 L16.7817871,11.9311738 L16.1000214,12.6129395 C15.9039126,12.8090482 15.5859575,12.8090482 15.3898488,12.6129395 C15.1937401,12.4168307 15.1937401,12.0988756 15.3898488,11.9027669 L16.810194,10.4824217 C17.0063027,10.2863129 17.3242578,10.2863129 17.5203666,10.4824217 L18.9407118,11.9027669 C19.1368205,12.0988756 19.1368205,12.4168307 18.9407118,12.6129395 C18.744603,12.8090482 18.4266479,12.8090482 18.2305392,12.6129395 L17.7854977,12.167898 Z"  fill="#000000"></path>
</svg>