<svg width="44px" height="44px" viewBox="0 0 44 44" version="1.1" xmlns="http://www.w3.org/2000/svg" xmlns:xlink="http://www.w3.org/1999/xlink">
    <path d="M27.1906977,15.5813953 C29.0042467,15.5813953 30.4744186,17.0515673 30.4744186,18.8651163 L30.4744186,25.3255814 C30.4744186,27.1391304 29.0042467,28.6093023 27.1906977,28.6093023 L17.0139535,28.6093023 C15.2004045,28.6093023 13.7302326,27.1391304 13.7302326,25.3255814 L13.7302326,18.8651163 C13.7302326,17.0515673 15.2004045,15.5813953 17.0139535,15.5813953 L27.1953488,15.5813953 L27.1906977,15.5813953 Z M27.1953488,14.1860465 L17.0139535,14.1860465 C14.4308374,14.1886104 12.3374476,16.2820001 12.3348837,18.8651163 L12.3348837,25.3255814 C12.3400092,27.906881 14.4326501,29.9974417 17.0139535,30 L27.1953488,30 C29.778465,29.9974361 31.8718547,27.9040464 31.8744186,25.3209302 L31.8744186,18.8604651 C31.8692883,16.277351 29.7738169,14.1860414 27.1906977,14.1860465 L27.1953488,14.1860465 Z" fill="#000000"></path>
    <path d="M20.7069767,19.7674419 L24.427907,22.0930233 L20.7069767,24.4186047 L20.7069767,19.7674419 L20.7069767,19.7674419 Z M20.7069767,18.372093 C19.9363469,18.372093 19.3116279,18.996812 19.3116279,19.7674419 L19.3116279,24.4186047 C19.3123023,24.9255169 19.5878367,25.3921903 20.0313677,25.6376301 C20.4748987,25.8830699 21.0166512,25.8686642 21.4465116,25.6 L25.1674419,23.2744186 C25.5758433,23.0195268 25.8240058,22.5721139 25.8240058,22.0906977 C25.8240058,21.6092815 25.5758433,21.1618686 25.1674419,20.9069767 L21.4465116,18.5813953 C21.224941,18.4421386 20.9686744,18.3679986 20.7069767,18.3674419 L20.7069767,18.372093 Z" fill="#000000"></path>
</svg>