<svg width="34px" height="34px" viewBox="0 0 34 34" version="1.1" xmlns="http://www.w3.org/2000/svg" xmlns:xlink="http://www.w3.org/1999/xlink">
    <path d="M10.71,16.3818182 L23.0736364,16.3818182 C23.3937105,16.3818182 23.6531818,16.1223468 23.6531818,15.8022727 C23.6531818,15.4821986 23.3937105,15.2227273 23.0736364,15.2227273 L17.2781818,15.2227273 L17.2781818,11.3127273 L18.02,12.0545455 C18.1644773,12.2095956 18.3820656,12.2734198 18.5874051,12.2209797 C18.7927445,12.1685397 18.9530851,12.008199 19.0055252,11.8028596 C19.0579653,11.5975202 18.9941411,11.3799318 18.8390909,11.2354545 L17.2009091,9.59727273 C16.974641,9.37128603 16.6080863,9.37128603 16.3818182,9.59727273 L14.7436364,11.2354545 C14.5308591,11.463803 14.5371375,11.8196439 14.7578377,12.0403441 C14.9785379,12.2610444 15.3343788,12.2673228 15.5627273,12.0545455 L16.1190909,11.4981818 L16.1190909,15.2227273 L10.71,15.2227273 C10.3899259,15.2227273 10.1304545,15.4821986 10.1304545,15.8022727 C10.1304545,16.1223468 10.3899259,16.3818182 10.71,16.3818182 L10.71,16.3818182 Z" fill="#000000"></path>
    <path d="M23.0736364,17.5409091 L10.71,17.5409091 C10.3899259,17.5409091 10.1304545,17.8003804 10.1304545,18.1204545 C10.1304545,18.4405287 10.3899259,18.7 10.71,18.7 L16.1190909,18.7 L16.1190909,22.5172727 L15.47,21.8681818 C15.2416516,21.6554045 14.8858107,21.6616829 14.6651104,21.8823832 C14.4444102,22.1030834 14.4381318,22.4589243 14.6509091,22.6872727 L16.2890909,24.3254545 C16.515359,24.5514412 16.8819137,24.5514412 17.1081818,24.3254545 L18.7463636,22.6872727 C18.9591409,22.4589243 18.9528625,22.1030834 18.7321623,21.8823832 C18.5114621,21.6616829 18.1556212,21.6554045 17.9272727,21.8681818 L17.2781818,22.5172727 L17.2781818,18.7 L23.0736364,18.7 C23.3937105,18.7 23.6531818,18.4405287 23.6531818,18.1204545 C23.6531818,17.8003804 23.3937105,17.5409091 23.0736364,17.5409091 L23.0736364,17.5409091 Z" fill="#000000"></path>
</svg>