<svg width="34px" height="34px" viewBox="0 0 34 34" version="1.1" xmlns="http://www.w3.org/2000/svg" xmlns:xlink="http://www.w3.org/1999/xlink">
    <g transform="translate(10.045455, 9.272727)" fill="#000000">
        <path d="M0.648337029,7.31263858 L12.7104213,7.31263858 C13.0226887,7.31263858 13.2758315,7.05949581 13.2758315,6.74722838 C13.2758315,6.43496095 13.0226887,6.18181818 12.7104213,6.18181818 L6.91308204,6.18181818 L8.4886918,4.60620843 C8.69627941,4.38342945 8.69015414,4.03626762 8.47483683,3.82095031 C8.25951952,3.605633 7.91235769,3.59950773 7.68957871,3.80709534 L7.05631929,4.44035477 L7.05631929,0.904656319 C7.05631929,0.592388889 6.80317652,0.33924612 6.49090909,0.33924612 C6.17864166,0.33924612 5.92549889,0.592388889 5.92549889,0.904656319 L5.92549889,4.44035477 L5.29223947,3.80709534 C5.0694605,3.59950773 4.72229866,3.605633 4.50698135,3.82095031 C4.29166404,4.03626762 4.28553877,4.38342945 4.49312639,4.60620843 L6.06873614,6.18181818 L0.648337029,6.18181818 C0.336069598,6.18181818 0.0829268293,6.43496095 0.0829268293,6.74722838 C0.0829268293,7.05949581 0.336069598,7.31263858 0.648337029,7.31263858 L0.648337029,7.31263858 Z" id="Shape"></path>
        <path d="M12.7104213,8.44345898 L0.648337029,8.44345898 C0.336069598,8.44345898 0.0829268293,8.69660175 0.0829268293,9.00886918 C0.0829268293,9.32113661 0.336069598,9.57427938 0.648337029,9.57427938 L6.30243902,9.57427938 C6.26173544,9.59457182 6.2237437,9.61989965 6.18935698,9.64966741 L4.59113082,11.2478936 C4.38354321,11.4706725 4.38966847,11.8178344 4.60498578,12.0331517 C4.82030309,12.248469 5.16746493,12.2545943 5.3902439,12.0470067 L5.93303769,11.5042129 L5.93303769,14.8514412 C5.93303769,15.1637087 6.18618046,15.4168514 6.49844789,15.4168514 C6.81071532,15.4168514 7.06385809,15.1637087 7.06385809,14.8514412 L7.06385809,11.3232816 L7.78758315,12.0470067 C7.92853658,12.1982751 8.14081793,12.2605426 8.34114907,12.2093816 C8.54148021,12.1582205 8.69791008,12.0017906 8.74907114,11.8014595 C8.8002322,11.6011283 8.7379647,11.388847 8.58669623,11.2478936 L6.98847007,9.64966741 C6.95408335,9.61989965 6.91609161,9.59457182 6.87538803,9.57427938 L12.7104213,9.57427938 C13.0226887,9.57427938 13.2758315,9.32113661 13.2758315,9.00886918 C13.2758315,8.69660175 13.0226887,8.44345898 12.7104213,8.44345898 L12.7104213,8.44345898 Z" id="Shape"></path>
    </g>
</svg>